Sweynheim & Pannartz-Subiaco-ProtoRoman120R.ufo
<glyph name="question" format="1">
  <advance width="442"/>
  <unicode hex="003F"/>
  <outline>
    <contour>
      <point x="147" y="594" type="curve"/>
      <point x="196" y="599"/>
      <point x="242" y="586"/>
      <point x="282" y="586" type="curve"/>
      <point x="321" y="586"/>
      <point x="382" y="625"/>
      <point x="440" y="697" type="curve"/>
      <point x="472" y="681" type="line"/>
      <point x="425" y="604"/>
      <point x="326" y="495"/>
      <point x="299" y="477" type="curve"/>
      <point x="224" y="486"/>
      <point x="134" y="515"/>
      <point x="113" y="490" type="curve"/>
      <point x="113" y="454"/>
      <point x="170" y="430"/>
      <point x="201" y="420" type="curve"/>
      <point x="141" y="319" type="line"/>
      <point x="81" y="338"/>
      <point x="48" y="363"/>
      <point x="48" y="418" type="curve"/>
      <point x="48" y="497"/>
      <point x="100" y="559"/>
    </contour>
    <component base="period" xOffset="10"/>
  </outline>
</glyph>
<glyph name="C" format="1">
  <advance width="569"/>
  <unicode hex="0043"/>
  <outline>
    <contour>
      <point x="286" y="710" type="curve"/>
      <point x="166" y="682"/>
      <point x="23" y="552"/>
      <point x="23" y="362" type="curve"/>
      <point x="23" y="132"/>
      <point x="155" y="-1"/>
      <point x="345" y="-10" type="curve"/>
      <point x="422" y="27"/>
      <point x="520" y="98"/>
      <point x="565" y="136" type="curve"/>
      <point x="559" y="169" type="line"/>
      <point x="501" y="134"/>
      <point x="438" y="91"/>
      <point x="353" y="91" type="curve"/>
      <point x="228" y="91"/>
      <point x="110" y="215"/>
      <point x="110" y="395" type="curve"/>
      <point x="110" y="534"/>
      <point x="163" y="596"/>
      <point x="217" y="626" type="curve"/>
      <point x="280" y="634"/>
      <point x="398" y="618"/>
      <point x="456" y="585" type="curve"/>
      <point x="526" y="665" type="line"/>
      <point x="529" y="682" type="line"/>
      <point x="471" y="699"/>
      <point x="359" y="716"/>
    </contour>
  </outline>
</glyph>
<glyph name="E" format="1">
  <advance width="422"/>
  <unicode hex="0045"/>
  <outline>
    <contour>
      <point x="290" y="331" type="curve"/>
      <point x="143" y="331" type="line"/>
      <point x="143" y="379" type="line"/>
      <point x="274" y="379" type="line" smooth="yes"/>
      <point x="329" y="379"/>
      <point x="333" y="381"/>
      <point x="353" y="416" type="curve"/>
      <point x="376" y="416" type="line"/>
      <point x="377" y="272" type="line"/>
      <point x="357" y="272" type="line"/>
      <point x="342" y="321"/>
      <point x="342" y="331"/>
    </contour>
    <contour>
      <point x="249" y="652" type="curve"/>
      <point x="154" y="652" type="line"/>
      <point x="154" y="51" type="line"/>
      <point x="272" y="51" type="line" smooth="yes"/>
      <point x="321" y="51"/>
      <point x="347" y="61"/>
      <point x="367" y="121" type="curve"/>
      <point x="387" y="121" type="line"/>
      <point x="385" y="46"/>
      <point x="387" y="-2"/>
      <point x="392" y="-50" type="curve"/>
      <point x="371" y="-52" type="line"/>
      <point x="353" y="-6"/>
      <point x="320" y="0"/>
      <point x="249" y="0" type="curve"/>
      <point x="203" y="0"/>
      <point x="118" y="5"/>
      <point x="34" y="-5" type="curve"/>
      <point x="34" y="23" type="line"/>
      <point x="48" y="53"/>
      <point x="49" y="52"/>
      <point x="50" y="115" type="curve"/>
      <point x="52" y="261"/>
      <point x="53" y="473"/>
      <point x="50" y="607" type="curve"/>
      <point x="49" y="651"/>
      <point x="46" y="655"/>
      <point x="30" y="680" type="curve"/>
      <point x="30" y="704" type="line"/>
      <point x="154" y="700"/>
      <point x="267" y="700"/>
      <point x="391" y="705" type="curve"/>
      <point x="379" y="576" type="line"/>
      <point x="361" y="576" type="line"/>
      <point x="326" y="641"/>
      <point x="328" y="652"/>
    </contour>
  </outline>
</glyph>
<glyph name="H" format="1">
  <advance width="748"/>
  <unicode hex="0048"/>
  <outline>
    <contour>
      <point x="568" y="371" type="curve"/>
      <point x="568" y="263"/>
      <point x="569" y="155"/>
      <point x="564" y="47" type="curve"/>
      <point x="468" y="37" type="line"/>
      <point x="468" y="-3" type="line"/>
      <point x="585" y="2"/>
      <point x="655" y="5"/>
      <point x="718" y="-3" type="curve"/>
      <point x="718" y="32" type="line"/>
      <point x="693" y="42"/>
      <point x="673" y="76"/>
      <point x="673" y="238" type="curve"/>
      <point x="673" y="304" type="line" smooth="yes"/>
      <point x="673" y="484"/>
      <point x="678" y="561"/>
      <point x="684" y="615" type="curve"/>
      <point x="554" y="614" type="line"/>
      <point x="564" y="527"/>
      <point x="569" y="456"/>
    </contour>
    <contour>
      <point x="166" y="117" type="curve"/>
      <point x="166" y="657" type="line"/>
      <point x="279" y="661" type="line"/>
      <point x="279" y="703" type="line"/>
      <point x="211" y="698"/>
      <point x="108" y="698"/>
      <point x="48" y="703" type="curve"/>
      <point x="41" y="678" type="line"/>
      <point x="57" y="635"/>
      <point x="57" y="581"/>
      <point x="61" y="460" type="curve"/>
      <point x="64" y="361"/>
      <point x="64" y="262"/>
      <point x="61" y="163" type="curve"/>
      <point x="58" y="53"/>
      <point x="48" y="44"/>
      <point x="30" y="32" type="curve"/>
      <point x="30" y="-3" type="line"/>
      <point x="89" y="4"/>
      <point x="158" y="2"/>
      <point x="254" y="-3" type="curve"/>
      <point x="254" y="35" type="line"/>
      <point x="157" y="52"/>
      <point x="166" y="61"/>
    </contour>
    <contour>
      <point x="151" y="387" type="curve"/>
      <point x="151" y="334" type="line"/>
      <point x="295" y="339"/>
      <point x="439" y="339"/>
      <point x="583" y="333" type="curve"/>
      <point x="583" y="387" type="line"/>
      <point x="439" y="384"/>
      <point x="295" y="384"/>
    </contour>
  </outline>
</glyph>
<glyph name="L" format="1">
  <advance width="518"/>
  <unicode hex="004C"/>
  <outline>
    <contour>
      <point x="30" y="673" type="curve"/>
      <point x="30" y="703" type="line"/>
      <point x="91" y="700"/>
      <point x="177" y="700"/>
      <point x="244" y="703" type="curve"/>
      <point x="244" y="675" type="line"/>
      <point x="167" y="650"/>
      <point x="162" y="649"/>
      <point x="160" y="609" type="curve"/>
      <point x="153" y="436"/>
      <point x="153" y="230"/>
      <point x="154" y="47" type="curve"/>
      <point x="295" y="56" type="line" smooth="yes"/>
      <point x="375" y="61"/>
      <point x="387" y="63"/>
      <point x="420" y="172" type="curve"/>
      <point x="448" y="172" type="line"/>
      <point x="440" y="-10" type="line"/>
      <point x="373" y="-3"/>
      <point x="145" y="-1"/>
      <point x="32" y="-5" type="curve"/>
      <point x="31" y="11" type="line"/>
      <point x="53" y="83"/>
      <point x="51" y="449"/>
      <point x="47" y="600" type="curve"/>
      <point x="46" y="646"/>
      <point x="46" y="652"/>
    </contour>
  </outline>
</glyph>
<glyph name="P" format="1">
  <advance width="579"/>
  <unicode hex="0050"/>
  <outline>
    <contour>
      <point x="30" y="-3" type="curve"/>
      <point x="30" y="32" type="line"/>
      <point x="66" y="42"/>
      <point x="65" y="45"/>
      <point x="66" y="76" type="curve"/>
      <point x="72" y="247"/>
      <point x="67" y="556"/>
      <point x="65" y="603" type="curve"/>
      <point x="63" y="648"/>
      <point x="57" y="653"/>
      <point x="34" y="668" type="curve"/>
      <point x="34" y="703" type="line"/>
      <point x="94" y="697"/>
      <point x="180" y="709"/>
      <point x="284" y="709" type="curve"/>
      <point x="444" y="709"/>
      <point x="553" y="605"/>
      <point x="553" y="465" type="curve"/>
      <point x="553" y="295"/>
      <point x="361" y="210"/>
      <point x="216" y="262" type="curve"/>
      <point x="218" y="292" type="line"/>
      <point x="355" y="264"/>
      <point x="444" y="327"/>
      <point x="444" y="474" type="curve"/>
      <point x="444" y="551"/>
      <point x="402" y="663"/>
      <point x="274" y="663" type="curve"/>
      <point x="196" y="663"/>
      <point x="176" y="632"/>
      <point x="172" y="562" type="curve"/>
      <point x="169" y="508"/>
      <point x="170" y="216"/>
      <point x="178" y="87" type="curve"/>
      <point x="180" y="55"/>
      <point x="181" y="50"/>
      <point x="277" y="32" type="curve"/>
      <point x="277" y="-3" type="line"/>
      <point x="233" y="2"/>
      <point x="105" y="5"/>
    </contour>
  </outline>
</glyph>
<glyph name="R" format="1">
  <advance width="705"/>
  <unicode hex="0052"/>
  <outline>
    <contour>
      <point x="278" y="363" type="curve"/>
      <point x="146" y="338" type="line"/>
      <point x="253" y="338"/>
      <point x="371" y="185"/>
      <point x="438" y="87" type="curve"/>
      <point x="455" y="62"/>
      <point x="452" y="40"/>
      <point x="448" y="9" type="curve"/>
      <point x="454" y="0" type="line"/>
      <point x="519" y="3"/>
      <point x="585" y="3"/>
      <point x="650" y="0" type="curve"/>
      <point x="648" y="25" type="line"/>
      <point x="513" y="136"/>
      <point x="415" y="259"/>
    </contour>
    <contour>
      <point x="156" y="390" type="curve"/>
      <point x="159" y="337" type="line"/>
      <point x="331" y="325"/>
      <point x="515" y="383"/>
      <point x="515" y="536" type="curve"/>
      <point x="515" y="646"/>
      <point x="410" y="710"/>
      <point x="270" y="710" type="curve"/>
      <point x="189" y="710"/>
      <point x="38" y="687"/>
      <point x="37" y="699" type="curve"/>
      <point x="30" y="672" type="line"/>
      <point x="35" y="664"/>
      <point x="58" y="644"/>
      <point x="62" y="603" type="curve"/>
      <point x="70" y="521"/>
      <point x="73" y="146"/>
      <point x="69" y="98" type="curve"/>
      <point x="65" y="55"/>
      <point x="57" y="45"/>
      <point x="40" y="29" type="curve"/>
      <point x="40" y="0" type="line"/>
      <point x="215" y="0" type="line"/>
      <point x="215" y="29" type="line"/>
      <point x="190" y="48"/>
      <point x="181" y="54"/>
      <point x="180" y="96" type="curve"/>
      <point x="176" y="251"/>
      <point x="161" y="480"/>
      <point x="179" y="640" type="curve"/>
      <point x="199" y="653"/>
      <point x="233" y="668"/>
      <point x="269" y="668" type="curve"/>
      <point x="349" y="668"/>
      <point x="408" y="609"/>
      <point x="408" y="529" type="curve"/>
      <point x="408" y="429"/>
      <point x="337" y="375"/>
      <point x="247" y="375" type="curve"/>
      <point x="209" y="375"/>
      <point x="194" y="380"/>
    </contour>
  </outline>
</glyph>
<glyph name="T" format="1">
  <advance width="682"/>
  <unicode hex="0054"/>
  <outline>
    <contour>
      <point x="282" y="196" type="curve"/>
      <point x="282" y="630" type="line"/>
      <point x="383" y="630" type="line"/>
      <point x="384" y="536"/>
      <point x="383" y="267"/>
      <point x="388" y="173" type="curve"/>
      <point x="394" y="57"/>
      <point x="394" y="61"/>
      <point x="451" y="30" type="curve"/>
      <point x="451" y="1" type="line"/>
      <point x="380" y="4"/>
      <point x="323" y="2"/>
      <point x="272" y="-5" type="curve"/>
      <point x="267" y="0" type="line"/>
      <point x="281" y="67"/>
      <point x="282" y="101"/>
    </contour>
    <contour>
      <point x="682" y="700" type="line"/>
      <point x="620" y="629" type="line"/>
      <point x="462" y="619"/>
      <point x="64" y="643"/>
      <point x="19" y="601" type="curve"/>
      <point x="0" y="616" type="line"/>
      <point x="29" y="651"/>
      <point x="50" y="674"/>
      <point x="77" y="700" type="curve"/>
      <point x="167" y="700"/>
      <point x="561" y="694"/>
      <point x="674" y="710" type="curve"/>
    </contour>
  </outline>
</glyph>
<glyph name="V" format="1">
  <advance width="693"/>
  <unicode hex="0056"/>
  <outline>
    <contour>
      <point x="5" y="700" type="curve"/>
      <point x="6" y="671" type="line"/>
      <point x="47" y="610"/>
      <point x="323" y="72"/>
      <point x="346" y="-10" type="curve"/>
      <point x="380" y="-10" type="line"/>
      <point x="403" y="93"/>
      <point x="636" y="606"/>
      <point x="688" y="671" type="curve"/>
      <point x="688" y="700" type="line"/>
      <point x="639" y="697"/>
      <point x="551" y="699"/>
      <point x="523" y="700" type="curve"/>
      <point x="523" y="665" type="line"/>
      <point x="587" y="663" type="line"/>
      <point x="360" y="96" type="line"/>
      <point x="388" y="155" type="line"/>
      <point x="327" y="289"/>
      <point x="217" y="522"/>
      <point x="178" y="608" type="curve"/>
      <point x="161" y="645"/>
      <point x="164" y="653"/>
      <point x="193" y="673" type="curve"/>
      <point x="191" y="700" type="line"/>
      <point x="163" y="700"/>
      <point x="81" y="698"/>
    </contour>
  </outline>
</glyph>
<glyph name="d" format="1">
  <advance width="475"/>
  <unicode hex="0064"/>
  <outline>
    <contour>
      <point x="325" y="307" type="curve"/>
      <point x="334" y="419" type="line"/>
      <point x="308" y="428"/>
      <point x="261" y="440"/>
      <point x="217" y="440" type="curve"/>
      <point x="128" y="420"/>
      <point x="20" y="325"/>
      <point x="20" y="200" type="curve"/>
      <point x="20" y="74"/>
      <point x="90" y="10"/>
      <point x="176" y="-10" type="curve"/>
      <point x="233" y="14"/>
      <point x="290" y="65"/>
      <point x="331" y="87" type="curve"/>
      <point x="326" y="139" type="line"/>
      <point x="296" y="114"/>
      <point x="282" y="99"/>
      <point x="229" y="99" type="curve"/>
      <point x="122" y="99"/>
      <point x="53" y="222"/>
      <point x="117" y="336" type="curve"/>
      <point x="166" y="357"/>
      <point x="286" y="348"/>
    </contour>
    <contour>
      <point x="310" y="630" type="curve"/>
      <point x="317" y="449"/>
      <point x="319" y="269"/>
      <point x="315" y="88" type="curve"/>
      <point x="314" y="32"/>
      <point x="341" y="6"/>
      <point x="359" y="-10" type="curve"/>
      <point x="397" y="14"/>
      <point x="423" y="35"/>
      <point x="459" y="57" type="curve"/>
      <point x="459" y="75" type="line"/>
      <point x="424" y="99"/>
      <point x="412" y="104"/>
      <point x="411" y="156" type="curve"/>
      <point x="407" y="371"/>
      <point x="414" y="600"/>
      <point x="430" y="702" type="curve"/>
      <point x="423" y="712" type="line"/>
      <point x="271" y="690" type="line"/>
      <point x="271" y="657" type="line"/>
      <point x="291" y="653"/>
      <point x="309" y="657"/>
    </contour>
  </outline>
</glyph>
<glyph name="f" format="1">
  <advance width="260"/>
  <unicode hex="0066"/>
  <outline>
    <contour>
      <point x="300" y="675" type="curve"/>
      <point x="251" y="594" type="line"/>
      <point x="240" y="595" type="line"/>
      <point x="226" y="613"/>
      <point x="187" y="636"/>
      <point x="153" y="630" type="curve"/>
      <point x="138" y="610"/>
      <point x="138" y="491"/>
      <point x="138" y="373" type="curve"/>
      <point x="138" y="167"/>
      <point x="142" y="103"/>
      <point x="161" y="33" type="curve"/>
      <point x="162" y="4" type="line"/>
      <point x="126" y="2"/>
      <point x="73" y="-3"/>
      <point x="38" y="-10" type="curve"/>
      <point x="36" y="-6" type="line"/>
      <point x="39" y="62"/>
      <point x="46" y="230"/>
      <point x="46" y="279" type="curve"/>
      <point x="46" y="322"/>
      <point x="28" y="344"/>
      <point x="29" y="356" type="curve"/>
      <point x="29" y="362" type="line"/>
      <point x="43" y="392"/>
      <point x="55" y="428"/>
      <point x="61" y="477" type="curve"/>
      <point x="74" y="586"/>
      <point x="131" y="710"/>
      <point x="199" y="710" type="curve"/>
      <point x="238" y="710"/>
      <point x="282" y="696"/>
    </contour>
    <contour>
      <point x="101" y="340" type="curve"/>
      <point x="101" y="405" type="line"/>
      <point x="280" y="405" type="line"/>
      <point x="280" y="340" type="line"/>
      <point x="234" y="343"/>
      <point x="167" y="343"/>
    </contour>
  </outline>
</glyph>
<glyph name="n" format="1">
  <advance width="431"/>
  <unicode hex="006E"/>
  <outline>
    <contour>
      <point x="66" y="263" type="curve"/>
      <point x="66" y="131"/>
      <point x="65" y="82"/>
      <point x="53" y="-7" type="curve"/>
      <point x="58" y="-13" type="line"/>
      <point x="106" y="-6"/>
      <point x="131" y="-1"/>
      <point x="172" y="2" type="curve"/>
      <point x="162" y="98"/>
      <point x="161" y="179"/>
      <point x="161" y="331" type="curve"/>
      <point x="161" y="375"/>
      <point x="125" y="423"/>
      <point x="94" y="440" type="curve"/>
      <point x="10" y="376" type="line"/>
      <point x="10" y="348" type="line"/>
      <point x="54" y="343"/>
      <point x="66" y="309"/>
    </contour>
    <contour>
      <point x="264" y="-5" type="curve"/>
      <point x="270" y="-10" type="line"/>
      <point x="323" y="5"/>
      <point x="368" y="16"/>
      <point x="421" y="21" type="curve"/>
      <point x="421" y="54" type="line"/>
      <point x="384" y="62"/>
      <point x="381" y="71"/>
      <point x="378" y="108" type="curve"/>
      <point x="372" y="185"/>
      <point x="378" y="273"/>
      <point x="378" y="350" type="curve"/>
      <point x="378" y="394"/>
      <point x="322" y="431"/>
      <point x="297" y="440" type="curve"/>
      <point x="271" y="433"/>
      <point x="196" y="380"/>
      <point x="140" y="348" type="curve"/>
      <point x="154" y="316" type="line"/>
      <point x="230" y="358"/>
      <point x="292" y="328"/>
      <point x="292" y="208" type="curve"/>
      <point x="292" y="133"/>
      <point x="283" y="81"/>
    </contour>
  </outline>
</glyph>
<glyph name="p" format="1">
  <advance width="461"/>
  <unicode hex="0070"/>
  <outline>
    <contour>
      <point x="148" y="367" type="curve"/>
      <point x="148" y="329" type="line"/>
      <point x="164" y="338"/>
      <point x="185" y="348"/>
      <point x="217" y="348" type="curve"/>
      <point x="351" y="348"/>
      <point x="404" y="153"/>
      <point x="309" y="67" type="curve"/>
      <point x="255" y="67"/>
      <point x="175" y="85"/>
      <point x="145" y="101" type="curve"/>
      <point x="139" y="3" type="line"/>
      <point x="180" y="-4"/>
      <point x="228" y="-10"/>
      <point x="261" y="-10" type="curve"/>
      <point x="329" y="22"/>
      <point x="441" y="107"/>
      <point x="441" y="237" type="curve"/>
      <point x="441" y="349"/>
      <point x="372" y="430"/>
      <point x="275" y="441" type="curve"/>
      <point x="229" y="418"/>
      <point x="182" y="391"/>
    </contour>
    <contour>
      <point x="145" y="27" type="curve"/>
      <point x="154" y="359" type="line"/>
      <point x="152" y="386"/>
      <point x="139" y="413"/>
      <point x="108" y="440" type="curve"/>
      <point x="10" y="376" type="line"/>
      <point x="10" y="347" type="line"/>
      <point x="35" y="340"/>
      <point x="50" y="325"/>
      <point x="50" y="279" type="curve"/>
      <point x="50" y="78"/>
      <point x="44" y="-139"/>
      <point x="36" y="-340" type="curve"/>
      <point x="158" y="-314" type="line"/>
      <point x="156" y="-295"/>
      <point x="142" y="-99"/>
    </contour>
  </outline>
</glyph>
<glyph name="t" format="1">
  <advance width="301"/>
  <unicode hex="0074"/>
  <outline>
    <contour>
      <point x="111" y="343" type="curve"/>
      <point x="124" y="430" type="line"/>
      <point x="177" y="429"/>
      <point x="218" y="429"/>
      <point x="271" y="430" type="curve"/>
      <point x="271" y="343" type="line"/>
      <point x="214" y="348"/>
      <point x="168" y="348"/>
    </contour>
    <contour>
      <point x="145" y="499" type="line"/>
      <point x="160" y="494" type="line"/>
      <point x="136" y="410"/>
      <point x="138" y="235"/>
      <point x="144" y="166" type="curve"/>
      <point x="153" y="65"/>
      <point x="191" y="73"/>
      <point x="277" y="81" type="curve"/>
      <point x="285" y="55" type="line"/>
      <point x="226" y="26"/>
      <point x="169" y="0"/>
      <point x="132" y="-10" type="curve"/>
      <point x="92" y="-5"/>
      <point x="50" y="15"/>
      <point x="50" y="75" type="curve"/>
      <point x="50" y="146"/>
      <point x="51" y="269"/>
      <point x="51" y="352" type="curve"/>
      <point x="27" y="352" type="line"/>
      <point x="27" y="374" type="line"/>
    </contour>
  </outline>
</glyph>
<glyph name="d_strok" format="1">
  <advance width="467"/>
  <unicode hex="0111"/>
  <outline>
    <contour>
      <point x="450" y="479" type="curve"/>
      <point x="451" y="494" type="line"/>
      <point x="399" y="531" type="line"/>
      <point x="110" y="511" type="line"/>
      <point x="57" y="474" type="line"/>
      <point x="58" y="463" type="line"/>
      <point x="192" y="474"/>
      <point x="319" y="478"/>
    </contour>
    <contour>
      <point x="292" y="621" type="curve"/>
      <point x="310" y="108" type="line"/>
      <point x="318" y="-1" type="line"/>
      <point x="343" y="-10" type="line"/>
      <point x="375" y="6"/>
      <point x="412" y="34"/>
      <point x="441" y="47" type="curve"/>
      <point x="437" y="68" type="line"/>
      <point x="399" y="75"/>
      <point x="389" y="80"/>
      <point x="389" y="120" type="curve"/>
      <point x="389" y="335"/>
      <point x="387" y="598"/>
      <point x="398" y="700" type="curve"/>
      <point x="391" y="710" type="line"/>
      <point x="248" y="690" type="line"/>
      <point x="248" y="662" type="line"/>
      <point x="278" y="658"/>
      <point x="291" y="646"/>
    </contour>
    <contour>
      <point x="307" y="174" type="curve"/>
      <point x="303" y="392" type="line"/>
      <point x="292" y="397"/>
      <point x="213" y="406"/>
      <point x="167" y="406" type="curve"/>
      <point x="141" y="396"/>
      <point x="51" y="321"/>
      <point x="21" y="229" type="curve"/>
      <point x="11" y="73"/>
      <point x="89" y="-10"/>
      <point x="194" y="-10" type="curve"/>
      <point x="334" y="107" type="line"/>
      <point x="312" y="133" type="line"/>
      <point x="293" y="118"/>
      <point x="259" y="100"/>
      <point x="226" y="100" type="curve"/>
      <point x="152" y="100"/>
      <point x="93" y="154"/>
      <point x="93" y="239" type="curve"/>
      <point x="93" y="303"/>
      <point x="120" y="324"/>
      <point x="162" y="324" type="curve"/>
      <point x="228" y="324"/>
      <point x="307" y="280"/>
    </contour>
  </outline>
</glyph>
<glyph name="e_ogon" format="1">
  <advance width="332"/>
  <unicode hex="0119"/>
  <outline>
    <contour>
      <point x="164" y="2" type="curve"/>
      <point x="195" y="10" type="line"/>
      <point x="123" y="-156" type="line" smooth="yes"/>
      <point x="111" y="-184"/>
      <point x="114" y="-185"/>
      <point x="197" y="-169" type="curve"/>
      <point x="197" y="-200" type="line"/>
      <point x="35" y="-278" type="line"/>
      <point x="35" y="-246" type="line"/>
      <point x="76" y="-166"/>
      <point x="124" y="-81"/>
    </contour>
    <component base="e"/>
  </outline>
</glyph>
<glyph name="Theta" format="1">
  <advance width="629"/>
  <unicode hex="0398"/>
  <outline>
    <contour>
      <point x="310" y="-10" type="curve"/>
      <point x="460" y="-10"/>
      <point x="599" y="106"/>
      <point x="599" y="296" type="curve"/>
      <point x="599" y="486"/>
      <point x="470" y="605"/>
      <point x="310" y="605" type="curve"/>
      <point x="160" y="605"/>
      <point x="30" y="485"/>
      <point x="30" y="295" type="curve"/>
      <point x="30" y="105"/>
      <point x="150" y="-10"/>
    </contour>
    <contour>
      <point x="310" y="55" type="curve"/>
      <point x="213" y="55"/>
      <point x="125" y="128"/>
      <point x="125" y="296" type="curve"/>
      <point x="125" y="464"/>
      <point x="213" y="540"/>
      <point x="310" y="540" type="curve"/>
      <point x="407" y="540"/>
      <point x="504" y="464"/>
      <point x="504" y="296" type="curve"/>
      <point x="504" y="128"/>
      <point x="407" y="55"/>
    </contour>
    <contour>
      <point x="74" y="331" type="curve"/>
      <point x="74" y="267" type="line"/>
      <point x="205" y="273"/>
      <point x="409" y="273"/>
      <point x="538" y="267" type="curve"/>
      <point x="538" y="331" type="line"/>
      <point x="336" y="313"/>
      <point x="249" y="322"/>
    </contour>
  </outline>
</glyph>
<glyph name="iota" format="1">
  <advance width="202"/>
  <unicode hex="03B9"/>
  <outline>
    <contour>
      <point x="162" y="0" type="curve"/>
      <point x="44" y="0" type="line"/>
      <point x="53" y="137"/>
      <point x="64" y="361"/>
      <point x="38" y="391" type="curve"/>
      <point x="40" y="421" type="line"/>
      <point x="146" y="442" type="line"/>
      <point x="154" y="435" type="line"/>
      <point x="154" y="423"/>
      <point x="160" y="50"/>
    </contour>
  </outline>
</glyph>
<glyph name="lambda" format="1">
  <advance width="683"/>
  <unicode hex="03BB"/>
  <outline>
    <contour>
      <point x="31" y="536" type="curve"/>
      <point x="6" y="565" type="line"/>
      <point x="41" y="606"/>
      <point x="137" y="709"/>
      <point x="154" y="709" type="curve"/>
      <point x="171" y="709"/>
      <point x="553" y="191"/>
      <point x="575" y="169" type="curve"/>
      <point x="618" y="127"/>
      <point x="620" y="128"/>
      <point x="647" y="152" type="curve"/>
      <point x="673" y="127" type="line"/>
      <point x="640" y="93"/>
      <point x="587" y="36"/>
      <point x="541" y="15" type="curve"/>
      <point x="494" y="65"/>
      <point x="170" y="501"/>
      <point x="127" y="546" type="curve"/>
      <point x="95" y="579"/>
      <point x="93" y="579"/>
    </contour>
    <contour>
      <point x="239" y="530" type="curve"/>
      <point x="293" y="473" type="line"/>
      <point x="250" y="385"/>
      <point x="128" y="86"/>
      <point x="94" y="-6" type="curve"/>
      <point x="33" y="22" type="line"/>
      <point x="75" y="122"/>
      <point x="164" y="319"/>
    </contour>
  </outline>
</glyph>
<glyph name="omicron" format="1">
  <advance width="490"/>
  <unicode hex="03BF"/>
  <outline>
    <contour>
      <point x="250" y="75" type="curve"/>
      <point x="310" y="75"/>
      <point x="356" y="128"/>
      <point x="356" y="213" type="curve"/>
      <point x="356" y="298"/>
      <point x="304" y="350"/>
      <point x="236" y="350" type="curve"/>
      <point x="176" y="350"/>
      <point x="131" y="302"/>
      <point x="131" y="223" type="curve"/>
      <point x="131" y="129"/>
      <point x="183" y="75"/>
    </contour>
    <contour>
      <point x="245" y="440" type="curve"/>
      <point x="375" y="440"/>
      <point x="450" y="343"/>
      <point x="450" y="213" type="curve"/>
      <point x="450" y="83"/>
      <point x="355" y="-10"/>
      <point x="245" y="-10" type="curve"/>
      <point x="135" y="-10"/>
      <point x="40" y="73"/>
      <point x="40" y="203" type="curve"/>
      <point x="40" y="333"/>
      <point x="125" y="440"/>
    </contour>
  </outline>
</glyph>
<glyph name="chi" format="1">
  <advance width="493"/>
  <unicode hex="03C7"/>
  <outline>
    <contour>
      <point x="473" y="40" type="line"/>
      <point x="374" y="-10" type="line"/>
      <point x="371" y="-10"/>
      <point x="98" y="334"/>
      <point x="10" y="406" type="curve"/>
      <point x="7" y="425" type="line"/>
      <point x="116" y="438" type="line"/>
      <point x="182" y="337"/>
      <point x="397" y="73"/>
      <point x="471" y="56" type="curve"/>
    </contour>
    <contour>
      <point x="492" y="420" type="line"/>
      <point x="493" y="403" type="line"/>
      <point x="313" y="292"/>
      <point x="234" y="167"/>
      <point x="106" y="-8" type="curve"/>
      <point x="0" y="12" type="line"/>
      <point x="0" y="28" type="line"/>
      <point x="141" y="138"/>
      <point x="186" y="203"/>
      <point x="397" y="440" type="curve"/>
    </contour>
  </outline>
</glyph>
<glyph name="deicoptic" format="1">
  <advance width="750"/>
  <unicode hex="03EF"/>
  <outline>
    <contour>
      <point x="45" y="145" type="curve"/>
      <point x="10" y="151" type="line"/>
      <point x="32" y="207"/>
      <point x="58" y="267"/>
      <point x="129" y="317" type="curve"/>
      <point x="218" y="317"/>
      <point x="450" y="312"/>
      <point x="516" y="312" type="curve"/>
      <point x="608" y="312"/>
      <point x="676" y="339"/>
      <point x="720" y="433" type="curve"/>
      <point x="743" y="423" type="line"/>
      <point x="727" y="315"/>
      <point x="681" y="252"/>
      <point x="621" y="212" type="curve"/>
      <point x="484" y="212"/>
      <point x="341" y="216"/>
      <point x="231" y="216" type="curve"/>
      <point x="184" y="216"/>
      <point x="92" y="208"/>
    </contour>
    <contour>
      <point x="321" y="662" type="line"/>
      <point x="423" y="637" type="line"/>
      <point x="411" y="351"/>
      <point x="398" y="116"/>
      <point x="407" y="-222" type="curve"/>
      <point x="285" y="-240" type="line"/>
      <point x="303" y="118"/>
      <point x="307" y="270"/>
      <point x="309" y="656" type="curve"/>
    </contour>
  </outline>
</glyph>
<glyph name="leo" format="1">
  <advance width="684"/>
  <unicode hex="264C"/>
  <outline>
    <contour>
      <point x="235" y="302" type="curve"/>
      <point x="207" y="362" type="line"/>
      <point x="150" y="331"/>
      <point x="32" y="266"/>
      <point x="32" y="146" type="curve"/>
      <point x="32" y="66"/>
      <point x="88" y="-10"/>
      <point x="197" y="-10" type="curve"/>
      <point x="306" y="-10"/>
      <point x="396" y="67"/>
      <point x="396" y="179" type="curve"/>
      <point x="396" y="291"/>
      <point x="298" y="356"/>
      <point x="226" y="430" type="curve"/>
      <point x="154" y="504"/>
      <point x="110" y="560"/>
      <point x="110" y="590" type="curve"/>
      <point x="110" y="610"/>
      <point x="123" y="630"/>
      <point x="153" y="630" type="curve"/>
      <point x="286" y="630"/>
      <point x="485" y="199"/>
      <point x="602" y="-10" type="curve"/>
      <point x="622" y="-10" type="line"/>
      <point x="664" y="124" type="line"/>
      <point x="612" y="202"/>
      <point x="456" y="471"/>
      <point x="393" y="563" type="curve"/>
      <point x="323" y="665"/>
      <point x="261" y="710"/>
      <point x="165" y="710" type="curve"/>
      <point x="85" y="710"/>
      <point x="20" y="664"/>
      <point x="20" y="584" type="curve"/>
      <point x="20" y="425"/>
      <point x="291" y="317"/>
      <point x="291" y="172" type="curve"/>
      <point x="291" y="115"/>
      <point x="255" y="85"/>
      <point x="211" y="85" type="curve"/>
      <point x="167" y="85"/>
      <point x="137" y="125"/>
      <point x="137" y="175" type="curve"/>
      <point x="137" y="225"/>
      <point x="177" y="265"/>
    </contour>
  </outline>
</glyph>
<glyph name="q_bardes" format="1">
  <advance width="459"/>
  <unicode hex="A757"/>
  <outline>
    <contour>
      <point x="433" y="-175" type="line"/>
      <point x="429" y="-109" type="line"/>
      <point x="293" y="-120"/>
      <point x="186" y="-161"/>
      <point x="90" y="-212" type="curve"/>
      <point x="64" y="-269" type="line"/>
      <point x="75" y="-274" type="line"/>
      <point x="153" y="-223"/>
      <point x="296" y="-178"/>
      <point x="423" y="-183" type="curve"/>
    </contour>
    <component base="q"/>
  </outline>
</glyph>
<glyph name="l_strok" format="1">
  <advance width="445"/>
  <unicode hex="A769"/>
  <outline>
    <contour>
      <point x="388" y="700" type="line"/>
      <point x="238" y="700" type="line"/>
      <point x="238" y="678" type="line"/>
      <point x="257" y="670"/>
      <point x="268" y="659"/>
      <point x="268" y="634" type="curve"/>
      <point x="268" y="595"/>
      <point x="214" y="511"/>
      <point x="121" y="408" type="curve"/>
      <point x="133" y="390" type="line"/>
      <point x="224" y="473"/>
      <point x="291" y="580"/>
      <point x="339" y="645" type="curve"/>
      <point x="350" y="660"/>
      <point x="360" y="669"/>
      <point x="388" y="679" type="curve"/>
    </contour>
    <contour>
      <point x="161" y="172" type="curve"/>
      <point x="152" y="313"/>
      <point x="158" y="502"/>
      <point x="164" y="643" type="curve"/>
      <point x="165" y="665"/>
      <point x="178" y="667"/>
      <point x="200" y="677" type="curve"/>
      <point x="197" y="702" type="line"/>
      <point x="140" y="696"/>
      <point x="82" y="691"/>
      <point x="25" y="689" type="curve"/>
      <point x="25" y="666" type="line"/>
      <point x="56" y="648"/>
      <point x="56" y="644"/>
      <point x="57" y="599" type="curve"/>
      <point x="60" y="444"/>
      <point x="60" y="149"/>
      <point x="59" y="89" type="curve"/>
      <point x="58" y="42"/>
      <point x="86" y="15"/>
      <point x="136" y="-10" type="curve"/>
      <point x="216" y="58" type="line"/>
      <point x="217" y="83" type="line"/>
      <point x="161" y="92"/>
      <point x="165" y="106"/>
    </contour>
  </outline>
</glyph>
<glyph name="rum" format="1">
  <advance width="575"/>
  <unicode hex="A775"/>
  <outline>
    <contour>
      <point x="546" y="85" type="line"/>
      <point x="517" y="-6" type="line"/>
      <point x="376" y="0"/>
      <point x="199" y="6"/>
      <point x="25" y="-10" type="curve"/>
      <point x="18" y="12" type="line"/>
      <point x="86" y="58"/>
      <point x="160" y="158"/>
      <point x="160" y="224" type="curve"/>
      <point x="160" y="290"/>
      <point x="110" y="330"/>
      <point x="10" y="340" type="curve"/>
      <point x="10" y="351" type="line"/>
      <point x="115" y="440" type="line"/>
      <point x="135" y="440"/>
      <point x="252" y="417"/>
      <point x="252" y="293" type="curve"/>
      <point x="252" y="214"/>
      <point x="193" y="148"/>
      <point x="144" y="85" type="curve"/>
      <point x="544" y="89" type="line"/>
    </contour>
    <contour>
      <point x="45" y="-313" type="curve"/>
      <point x="43" y="-250" type="line"/>
      <point x="174" y="-197"/>
      <point x="265" y="-138"/>
      <point x="313" y="45" type="curve"/>
      <point x="368" y="255"/>
      <point x="409" y="450"/>
      <point x="563" y="443" type="curve"/>
      <point x="552" y="296" type="line"/>
      <point x="543" y="293" type="line"/>
      <point x="521" y="304"/>
      <point x="512" y="312"/>
      <point x="488" y="312" type="curve"/>
      <point x="423" y="312"/>
      <point x="409" y="244"/>
      <point x="360" y="62" type="curve"/>
      <point x="308" y="-131"/>
      <point x="231" y="-236"/>
    </contour>
  </outline>
</glyph>
<glyph name="q_bardes_ra" format="1">
  <advance width="440"/>
  <unicode hex="E68B"/>
  <outline>
    <contour>
      <point x="433" y="-175" type="line"/>
      <point x="429" y="-109" type="line"/>
      <point x="293" y="-120"/>
      <point x="226" y="-146"/>
      <point x="130" y="-197" type="curve"/>
      <point x="64" y="-269" type="line"/>
      <point x="79" y="-285" type="line"/>
      <point x="157" y="-234"/>
      <point x="296" y="-178"/>
      <point x="423" y="-183" type="curve"/>
    </contour>
    <component base="q_ra"/>
  </outline>
</glyph>
<glyph name="q_etfin" format="1">
  <advance width="609"/>
  <unicode hex="E8BF"/>
  <outline>
    <contour>
      <point x="355" y="303" type="curve"/>
      <point x="361" y="283" type="line"/>
      <point x="404" y="309"/>
      <point x="466" y="305"/>
      <point x="466" y="265" type="curve"/>
      <point x="466" y="211"/>
      <point x="427" y="183"/>
      <point x="362" y="140" type="curve"/>
      <point x="362" y="118" type="line"/>
      <point x="445" y="130"/>
      <point x="481" y="101"/>
      <point x="481" y="52" type="curve"/>
      <point x="481" y="-28"/>
      <point x="436" y="-98"/>
      <point x="349" y="-174" type="curve"/>
      <point x="363" y="-210" type="line"/>
      <point x="486" y="-99"/>
      <point x="579" y="41"/>
      <point x="579" y="121" type="curve"/>
      <point x="579" y="191"/>
      <point x="526" y="200"/>
      <point x="465" y="202" type="curve"/>
      <point x="457" y="177" type="line"/>
      <point x="505" y="245"/>
      <point x="566" y="264"/>
      <point x="566" y="338" type="curve"/>
      <point x="566" y="380"/>
      <point x="533" y="410"/>
      <point x="502" y="431" type="curve"/>
      <point x="445" y="389"/>
      <point x="408" y="343"/>
    </contour>
    <contour>
      <point x="162" y="-10" type="curve"/>
      <point x="291" y="53" type="line"/>
      <point x="292" y="89" type="line"/>
      <point x="168" y="75"/>
      <point x="88" y="117"/>
      <point x="88" y="254" type="curve"/>
      <point x="88" y="319"/>
      <point x="117" y="361"/>
      <point x="160" y="361" type="curve"/>
      <point x="220" y="361"/>
      <point x="284" y="334"/>
      <point x="284" y="193" type="curve"/>
      <point x="284" y="88"/>
      <point x="277" y="-89"/>
      <point x="269" y="-253" type="curve"/>
      <point x="267" y="-292"/>
      <point x="265" y="-292"/>
      <point x="234" y="-309" type="curve"/>
      <point x="235" y="-339" type="line"/>
      <point x="300" y="-330"/>
      <point x="363" y="-323"/>
      <point x="419" y="-320" type="curve"/>
      <point x="417" y="-289" type="line"/>
      <point x="385" y="-283"/>
      <point x="383" y="-286"/>
      <point x="380" y="-211" type="curve"/>
      <point x="375" y="-80"/>
      <point x="371" y="160"/>
      <point x="378" y="303" type="curve"/>
      <point x="382" y="380"/>
      <point x="389" y="388"/>
      <point x="410" y="452" type="curve"/>
      <point x="392" y="462" type="line"/>
      <point x="363" y="445"/>
      <point x="345" y="432"/>
      <point x="316" y="423" type="curve"/>
      <point x="289" y="432"/>
      <point x="270" y="440"/>
      <point x="226" y="440" type="curve"/>
      <point x="116" y="440"/>
      <point x="20" y="322"/>
      <point x="20" y="191" type="curve"/>
      <point x="20" y="84"/>
      <point x="55" y="10"/>
    </contour>
  </outline>
</glyph>
<glyph name="longs_longs" format="1">
  <advance width="461"/>
  <unicode hex="EBA6"/>
  <outline>
    <contour>
      <point x="365" y="661" type="curve"/>
      <point x="344" y="656" type="line"/>
      <point x="322" y="577" type="line"/>
      <point x="310" y="577" type="line"/>
      <point x="276" y="609"/>
      <point x="219" y="638"/>
      <point x="174" y="620" type="curve"/>
      <point x="167" y="599"/>
      <point x="164" y="559"/>
      <point x="164" y="520" type="curve"/>
      <point x="164" y="390"/>
      <point x="172" y="214"/>
      <point x="178" y="20" type="curve"/>
      <point x="63" y="-17" type="line"/>
      <point x="64" y="49"/>
      <point x="70" y="127"/>
      <point x="70" y="236" type="curve"/>
      <point x="70" y="390"/>
      <point x="79" y="399"/>
      <point x="45" y="441" type="curve"/>
      <point x="45" y="456" type="line"/>
      <point x="85" y="485"/>
      <point x="83" y="509"/>
      <point x="104" y="561" type="curve"/>
      <point x="120" y="600"/>
      <point x="172" y="708"/>
      <point x="233" y="710" type="curve"/>
      <point x="267" y="711"/>
      <point x="326" y="682"/>
    </contour>
    <contour>
      <point x="455" y="700" type="curve"/>
      <point x="454" y="586" type="line"/>
      <point x="442" y="586" type="line"/>
      <point x="418" y="618"/>
      <point x="388" y="638"/>
      <point x="361" y="620" type="curve"/>
      <point x="354" y="599"/>
      <point x="351" y="559"/>
      <point x="351" y="520" type="curve"/>
      <point x="351" y="390"/>
      <point x="359" y="216"/>
      <point x="365" y="22" type="curve"/>
      <point x="250" y="-25" type="line"/>
      <point x="251" y="41"/>
      <point x="257" y="127"/>
      <point x="257" y="236" type="curve"/>
      <point x="257" y="370"/>
      <point x="252" y="372"/>
      <point x="228" y="423" type="curve"/>
      <point x="230" y="437" type="line"/>
      <point x="272" y="449"/>
      <point x="269" y="487"/>
      <point x="291" y="561" type="curve"/>
      <point x="302" y="599"/>
      <point x="344" y="711"/>
    </contour>
  </outline>
</glyph>
<glyph name="h_strok" format="1">
  <advance width="452"/>
  <outline>
    <contour>
      <point x="38" y="513" type="curve"/>
      <point x="30" y="520" type="line"/>
      <point x="33" y="576" type="line"/>
      <point x="146" y="612"/>
      <point x="288" y="591"/>
      <point x="422" y="541" type="curve"/>
      <point x="434" y="499" type="line"/>
      <point x="429" y="493" type="line"/>
      <point x="306" y="539"/>
      <point x="137" y="563"/>
    </contour>
    <contour>
      <point x="162" y="343" type="curve"/>
      <point x="163" y="381" type="line"/>
      <point x="214" y="397"/>
      <point x="258" y="405"/>
      <point x="305" y="421" type="curve"/>
      <point x="386" y="408"/>
      <point x="446" y="348"/>
      <point x="446" y="242" type="curve"/>
      <point x="446" y="119"/>
      <point x="374" y="44"/>
      <point x="277" y="-10" type="curve"/>
      <point x="262" y="20" type="line"/>
      <point x="327" y="50"/>
      <point x="361" y="103"/>
      <point x="361" y="182" type="curve"/>
      <point x="361" y="291"/>
      <point x="276" y="375"/>
    </contour>
    <contour>
      <point x="180" y="635" type="curve"/>
      <point x="175" y="532"/>
      <point x="174" y="279"/>
      <point x="176" y="136" type="curve"/>
      <point x="177" y="78"/>
      <point x="191" y="69"/>
      <point x="203" y="51" type="curve"/>
      <point x="200" y="30" type="line"/>
      <point x="175" y="26"/>
      <point x="123" y="10"/>
      <point x="68" y="-10" type="curve"/>
      <point x="63" y="20" type="line"/>
      <point x="86" y="49"/>
      <point x="87" y="64"/>
      <point x="87" y="124" type="curve"/>
      <point x="88" y="274"/>
      <point x="77" y="499"/>
      <point x="75" y="595" type="curve"/>
      <point x="74" y="650"/>
      <point x="74" y="652"/>
      <point x="46" y="672" type="curve"/>
      <point x="46" y="700" type="line"/>
      <point x="208" y="702" type="line"/>
      <point x="211" y="678" type="line"/>
      <point x="187" y="660"/>
      <point x="181" y="656"/>
    </contour>
  </outline>
</glyph>
<glyph name="i.calt" format="1">
  <advance width="196"/>
  <outline>
    <contour>
      <point x="186" y="39" type="curve"/>
      <point x="186" y="65" type="line"/>
      <point x="146" y="65"/>
      <point x="139" y="60"/>
      <point x="139" y="196" type="curve"/>
      <point x="139" y="277"/>
      <point x="144" y="344"/>
      <point x="167" y="434" type="curve"/>
      <point x="158" y="451" type="line"/>
      <point x="124" y="438"/>
      <point x="64" y="425"/>
      <point x="30" y="416" type="curve"/>
      <point x="30" y="393" type="line"/>
      <point x="65" y="318"/>
      <point x="47" y="182"/>
      <point x="44" y="30" type="curve"/>
      <point x="50" y="11"/>
      <point x="73" y="0"/>
      <point x="94" y="-10" type="curve"/>
      <point x="132" y="7"/>
      <point x="152" y="23"/>
    </contour>
  </outline>
</glyph>
<glyph name="i_n" format="1">
  <advance width="661"/>
  <outline>
    <contour>
      <point x="203" y="658" type="line"/>
      <point x="124" y="515" type="line"/>
      <point x="148" y="502" type="line"/>
      <point x="255" y="650" type="line"/>
      <point x="255" y="658" type="line"/>
    </contour>
    <contour>
      <point x="176" y="326" type="curve"/>
      <point x="176" y="110" type="line"/>
      <point x="176" y="73"/>
      <point x="186" y="58"/>
      <point x="223" y="50" type="curve"/>
      <point x="223" y="21" type="line"/>
      <point x="173" y="18"/>
      <point x="124" y="7"/>
      <point x="74" y="-10" type="curve"/>
      <point x="68" y="-5" type="line"/>
      <point x="70" y="15"/>
      <point x="76" y="74"/>
      <point x="76" y="161" type="curve"/>
      <point x="76" y="289" type="line" smooth="yes"/>
      <point x="76" y="329"/>
      <point x="60" y="345"/>
      <point x="30" y="349" type="curve"/>
      <point x="30" y="376" type="line"/>
      <point x="133" y="440" type="line"/>
      <point x="164" y="423"/>
      <point x="176" y="378"/>
    </contour>
    <contour>
      <point x="282" y="-10" type="curve"/>
      <point x="273" y="0" type="line"/>
      <point x="292" y="41"/>
      <point x="298" y="95"/>
      <point x="298" y="234" type="curve"/>
      <point x="298" y="303"/>
      <point x="277" y="330"/>
      <point x="230" y="330" type="curve"/>
      <point x="198" y="330"/>
      <point x="174" y="322"/>
      <point x="157" y="303" type="curve"/>
      <point x="143" y="332" type="line"/>
      <point x="197" y="374"/>
      <point x="281" y="433"/>
      <point x="306" y="440" type="curve"/>
      <point x="331" y="440"/>
      <point x="398" y="384"/>
      <point x="398" y="340" type="curve"/>
      <point x="398" y="101" type="line" smooth="yes"/>
      <point x="398" y="64"/>
      <point x="404" y="55"/>
      <point x="441" y="47" type="curve"/>
      <point x="441" y="21" type="line"/>
      <point x="388" y="17"/>
      <point x="335" y="6"/>
    </contour>
    <contour>
      <point x="509" y="-10" type="curve"/>
      <point x="503" y="-5" type="line"/>
      <point x="515" y="96"/>
      <point x="515" y="125"/>
      <point x="515" y="244" type="curve"/>
      <point x="515" y="313"/>
      <point x="484" y="332"/>
      <point x="437" y="332" type="curve"/>
      <point x="405" y="332"/>
      <point x="391" y="322"/>
      <point x="374" y="303" type="curve"/>
      <point x="360" y="332" type="line"/>
      <point x="414" y="374"/>
      <point x="507" y="423"/>
      <point x="533" y="440" type="curve"/>
      <point x="558" y="430"/>
      <point x="608" y="404"/>
      <point x="618" y="360" type="curve"/>
      <point x="608" y="280"/>
      <point x="616" y="198"/>
      <point x="618" y="118" type="curve"/>
      <point x="619" y="81"/>
      <point x="624" y="53"/>
      <point x="651" y="45" type="curve"/>
      <point x="651" y="21" type="line"/>
      <point x="605" y="16"/>
      <point x="555" y="5"/>
    </contour>
  </outline>
</glyph>
<glyph name="i_u" format="1">
  <advance width="651"/>
  <outline>
    <contour>
      <point x="30" y="359" type="curve"/>
      <point x="30" y="383" type="line"/>
      <point x="74" y="398"/>
      <point x="118" y="417"/>
      <point x="162" y="440" type="curve"/>
      <point x="177" y="430" type="line"/>
      <point x="163" y="346"/>
      <point x="160" y="262"/>
      <point x="160" y="171" type="curve"/>
      <point x="160" y="114"/>
      <point x="191" y="85"/>
      <point x="226" y="85" type="curve"/>
      <point x="261" y="85"/>
      <point x="277" y="96"/>
      <point x="313" y="129" type="curve"/>
      <point x="313" y="83" type="line"/>
      <point x="154" y="-10" type="line"/>
      <point x="99" y="-10"/>
      <point x="62" y="33"/>
      <point x="62" y="88" type="curve"/>
      <point x="62" y="122"/>
      <point x="68" y="206"/>
      <point x="68" y="309" type="curve"/>
      <point x="68" y="345"/>
      <point x="49" y="352"/>
    </contour>
    <contour>
      <point x="182" y="628" type="line"/>
      <point x="126" y="500" type="line"/>
      <point x="157" y="502" type="line"/>
      <point x="244" y="619" type="line"/>
      <point x="244" y="627" type="line"/>
    </contour>
    <contour>
      <point x="247" y="368" type="curve"/>
      <point x="247" y="395" type="line"/>
      <point x="380" y="440" type="line"/>
      <point x="385" y="431" type="line"/>
      <point x="385" y="373"/>
      <point x="377" y="282"/>
      <point x="377" y="185" type="curve"/>
      <point x="377" y="115"/>
      <point x="413" y="86"/>
      <point x="446" y="86" type="curve"/>
      <point x="471" y="86"/>
      <point x="501" y="102"/>
      <point x="531" y="129" type="curve"/>
      <point x="531" y="83" type="line"/>
      <point x="471" y="56"/>
      <point x="418" y="12"/>
      <point x="358" y="-10" type="curve"/>
      <point x="296" y="10"/>
      <point x="280" y="34"/>
      <point x="280" y="89" type="curve"/>
      <point x="280" y="123"/>
      <point x="287" y="270"/>
      <point x="287" y="291" type="curve"/>
      <point x="287" y="327"/>
      <point x="279" y="353"/>
    </contour>
    <contour>
      <point x="493" y="71" type="curve"/>
      <point x="503" y="109"/>
      <point x="502" y="198"/>
      <point x="502" y="289" type="curve"/>
      <point x="502" y="339"/>
      <point x="488" y="365"/>
      <point x="448" y="378" type="curve"/>
      <point x="448" y="405" type="line"/>
      <point x="594" y="440" type="line"/>
      <point x="599" y="431" type="line"/>
      <point x="593" y="347"/>
      <point x="593" y="192"/>
      <point x="593" y="141" type="curve"/>
      <point x="593" y="100"/>
      <point x="594" y="92"/>
      <point x="630" y="74" type="curve"/>
      <point x="630" y="49" type="line"/>
      <point x="531" y="-15" type="line"/>
      <point x="513" y="6"/>
      <point x="493" y="34"/>
    </contour>
  </outline>
</glyph>
<glyph name="i_u_macr" format="1">
  <advance width="660"/>
  <outline>
    <contour>
      <point x="30" y="359" type="curve"/>
      <point x="30" y="383" type="line"/>
      <point x="74" y="398"/>
      <point x="118" y="417"/>
      <point x="171" y="440" type="curve"/>
      <point x="186" y="430" type="line"/>
      <point x="172" y="346"/>
      <point x="169" y="262"/>
      <point x="169" y="171" type="curve"/>
      <point x="169" y="114"/>
      <point x="200" y="92"/>
      <point x="235" y="92" type="curve"/>
      <point x="270" y="92"/>
      <point x="283" y="101"/>
      <point x="293" y="109" type="curve"/>
      <point x="293" y="83" type="line"/>
      <point x="125" y="-10" type="line"/>
      <point x="80" y="-1"/>
      <point x="62" y="13"/>
      <point x="62" y="68" type="curve"/>
      <point x="62" y="102"/>
      <point x="74" y="206"/>
      <point x="68" y="309" type="curve"/>
      <point x="66" y="345"/>
      <point x="49" y="352"/>
    </contour>
    <contour>
      <point x="220" y="619" type="line"/>
      <point x="143" y="478" type="line"/>
      <point x="164" y="462" type="line"/>
      <point x="271" y="601" type="line"/>
      <point x="271" y="609" type="line"/>
    </contour>
    <contour>
      <point x="244" y="398" type="curve"/>
      <point x="244" y="425" type="line"/>
      <point x="405" y="440" type="line"/>
      <point x="413" y="423" type="line"/>
      <point x="387" y="365"/>
      <point x="382" y="282"/>
      <point x="382" y="185" type="curve"/>
      <point x="382" y="115"/>
      <point x="410" y="86"/>
      <point x="443" y="86" type="curve"/>
      <point x="468" y="86"/>
      <point x="498" y="92"/>
      <point x="528" y="119" type="curve"/>
      <point x="528" y="80" type="line"/>
      <point x="468" y="53"/>
      <point x="405" y="20"/>
      <point x="345" y="-10" type="curve"/>
      <point x="293" y="10"/>
      <point x="277" y="44"/>
      <point x="277" y="99" type="curve"/>
      <point x="277" y="133"/>
      <point x="286" y="279"/>
      <point x="284" y="321" type="curve"/>
      <point x="282" y="357"/>
      <point x="276" y="383"/>
    </contour>
    <contour>
      <point x="490" y="71" type="curve"/>
      <point x="500" y="109"/>
      <point x="499" y="198"/>
      <point x="499" y="289" type="curve"/>
      <point x="499" y="339"/>
      <point x="495" y="365"/>
      <point x="465" y="378" type="curve"/>
      <point x="465" y="405" type="line"/>
      <point x="614" y="440" type="line"/>
      <point x="619" y="431" type="line"/>
      <point x="593" y="328"/>
      <point x="597" y="192"/>
      <point x="602" y="141" type="curve"/>
      <point x="606" y="100"/>
      <point x="603" y="92"/>
      <point x="639" y="74" type="curve"/>
      <point x="639" y="49" type="line"/>
      <point x="509" y="-15" type="line"/>
      <point x="491" y="6"/>
      <point x="490" y="34"/>
    </contour>
    <contour>
      <point x="393" y="597" type="curve"/>
      <point x="367" y="557"/>
      <point x="350" y="539"/>
      <point x="328" y="515" type="curve"/>
      <point x="348" y="500" type="line"/>
      <point x="393" y="517"/>
      <point x="425" y="509"/>
      <point x="529" y="496" type="curve"/>
      <point x="544" y="510"/>
      <point x="580" y="561"/>
      <point x="603" y="588" type="curve"/>
      <point x="582" y="601" type="line"/>
      <point x="537" y="579"/>
      <point x="510" y="582"/>
    </contour>
  </outline>
</glyph>
<glyph name="longs_b_stock" format="1">
  <advance width="650"/>
  <outline>
    <contour>
      <point x="265" y="605" type="curve"/>
      <point x="361" y="700" type="line"/>
      <point x="265" y="716"/>
      <point x="208" y="720"/>
      <point x="145" y="660" type="curve"/>
      <point x="123" y="621"/>
      <point x="85" y="465"/>
      <point x="45" y="436" type="curve"/>
      <point x="45" y="421" type="line"/>
      <point x="79" y="379"/>
      <point x="70" y="370"/>
      <point x="70" y="236" type="curve"/>
      <point x="70" y="127"/>
      <point x="64" y="61"/>
      <point x="63" y="-5" type="curve"/>
      <point x="178" y="2" type="line"/>
      <point x="172" y="196"/>
      <point x="164" y="380"/>
      <point x="164" y="520" type="curve"/>
      <point x="164" y="559"/>
      <point x="167" y="599"/>
      <point x="174" y="620" type="curve"/>
      <point x="219" y="620"/>
      <point x="243" y="609"/>
    </contour>
    <component base="b_strok" xOffset="208"/>
  </outline>
</glyph>
<glyph name="m.calt" format="1">
  <advance width="653"/>
  <outline>
    <contour>
      <point x="277" y="-10" type="line"/>
      <point x="271" y="-5" type="line"/>
      <point x="273" y="15"/>
      <point x="283" y="74"/>
      <point x="283" y="161" type="curve"/>
      <point x="283" y="234" type="line" smooth="yes"/>
      <point x="283" y="303"/>
      <point x="262" y="340"/>
      <point x="215" y="340" type="curve"/>
      <point x="183" y="340"/>
      <point x="159" y="322"/>
      <point x="142" y="303" type="curve"/>
      <point x="128" y="340" type="line"/>
      <point x="182" y="382"/>
      <point x="275" y="433"/>
      <point x="301" y="440" type="curve"/>
      <point x="326" y="440"/>
      <point x="383" y="384"/>
      <point x="383" y="340" type="curve"/>
      <point x="383" y="109" type="line" smooth="yes"/>
      <point x="383" y="72"/>
      <point x="389" y="63"/>
      <point x="426" y="55" type="curve"/>
      <point x="426" y="21" type="line"/>
    </contour>
    <contour>
      <point x="494" y="-10" type="line"/>
      <point x="488" y="-5" type="line"/>
      <point x="490" y="15"/>
      <point x="500" y="74"/>
      <point x="500" y="161" type="curve"/>
      <point x="500" y="234" type="line" smooth="yes"/>
      <point x="500" y="303"/>
      <point x="479" y="340"/>
      <point x="432" y="340" type="curve"/>
      <point x="400" y="340"/>
      <point x="376" y="322"/>
      <point x="359" y="303" type="curve"/>
      <point x="345" y="340" type="line"/>
      <point x="399" y="382"/>
      <point x="492" y="433"/>
      <point x="518" y="440" type="curve"/>
      <point x="543" y="440"/>
      <point x="600" y="384"/>
      <point x="600" y="340" type="curve"/>
      <point x="600" y="109" type="line" smooth="yes"/>
      <point x="600" y="72"/>
      <point x="606" y="63"/>
      <point x="643" y="55" type="curve"/>
      <point x="643" y="21" type="line"/>
    </contour>
    <contour>
      <point x="161" y="429" type="line"/>
      <point x="161" y="109" type="line"/>
      <point x="161" y="72"/>
      <point x="171" y="57"/>
      <point x="208" y="49" type="curve"/>
      <point x="208" y="21" type="line"/>
      <point x="59" y="-10" type="line"/>
      <point x="53" y="-5" type="line"/>
      <point x="55" y="15"/>
      <point x="61" y="74"/>
      <point x="61" y="161" type="curve"/>
      <point x="61" y="233"/>
      <point x="60" y="319"/>
      <point x="54" y="384" type="curve"/>
      <point x="150" y="440" type="line"/>
    </contour>
  </outline>
</glyph>
<glyph name="m_urrot" format="1">
  <advance width="653"/>
  <outline>
    <contour>
      <point x="514" y="492" type="curve"/>
      <point x="511" y="522" type="line"/>
      <point x="461" y="520"/>
      <point x="452" y="516"/>
      <point x="459" y="575" type="curve"/>
      <point x="463" y="605"/>
      <point x="475" y="655"/>
      <point x="479" y="690" type="curve"/>
      <point x="468" y="698" type="line"/>
      <point x="442" y="692"/>
      <point x="346" y="666"/>
      <point x="311" y="656" type="curve"/>
      <point x="315" y="624" type="line"/>
      <point x="372" y="629"/>
      <point x="373" y="627"/>
      <point x="375" y="580" type="curve"/>
      <point x="376" y="550"/>
      <point x="375" y="500"/>
      <point x="372" y="463" type="curve"/>
      <point x="399" y="472"/>
      <point x="497" y="489"/>
    </contour>
    <component base="m"/>
  </outline>
</glyph>
<glyph name="n.calt" format="1">
  <advance width="430"/>
  <outline>
    <contour>
      <point x="53" y="-5" type="curve"/>
      <point x="61" y="-10" type="line"/>
      <point x="168" y="11" type="line"/>
      <point x="162" y="74"/>
      <point x="159" y="114"/>
      <point x="159" y="203" type="curve"/>
      <point x="159" y="280"/>
      <point x="159" y="358"/>
      <point x="159" y="435" type="curve"/>
      <point x="148" y="440" type="line"/>
      <point x="56" y="384" type="line"/>
      <point x="62" y="316"/>
      <point x="59" y="247"/>
      <point x="59" y="179" type="curve"/>
      <point x="59" y="86"/>
      <point x="56" y="27"/>
    </contour>
    <contour>
      <point x="264" y="-5" type="curve"/>
      <point x="270" y="-10" type="line"/>
      <point x="323" y="5"/>
      <point x="375" y="16"/>
      <point x="428" y="21" type="curve"/>
      <point x="428" y="54" type="line"/>
      <point x="391" y="62"/>
      <point x="388" y="71"/>
      <point x="385" y="108" type="curve"/>
      <point x="379" y="185"/>
      <point x="385" y="273"/>
      <point x="385" y="350" type="curve"/>
      <point x="385" y="394"/>
      <point x="313" y="431"/>
      <point x="288" y="440" type="curve"/>
      <point x="262" y="433"/>
      <point x="196" y="388"/>
      <point x="140" y="348" type="curve"/>
      <point x="154" y="316" type="line"/>
      <point x="242" y="359"/>
      <point x="289" y="309"/>
      <point x="289" y="208" type="curve"/>
      <point x="289" y="133"/>
      <point x="283" y="81"/>
    </contour>
  </outline>
</glyph>
<glyph name="r_a" format="1">
  <advance width="522"/>
  <outline>
    <contour>
      <point x="242" y="306" type="curve"/>
      <point x="235" y="341" type="line"/>
      <point x="259" y="362"/>
      <point x="349" y="432"/>
      <point x="389" y="440" type="curve"/>
      <point x="453" y="440"/>
      <point x="496" y="418"/>
      <point x="496" y="341" type="curve"/>
      <point x="496" y="296"/>
      <point x="491" y="271"/>
      <point x="491" y="196" type="curve"/>
      <point x="491" y="168"/>
      <point x="496" y="108"/>
      <point x="512" y="84" type="curve"/>
      <point x="512" y="64" type="line"/>
      <point x="419" y="-13" type="line"/>
      <point x="406" y="-9" type="line"/>
      <point x="395" y="89" type="line"/>
      <point x="395" y="101"/>
      <point x="398" y="274"/>
      <point x="398" y="284" type="curve"/>
      <point x="398" y="316"/>
      <point x="398" y="360"/>
      <point x="335" y="360" type="curve"/>
      <point x="298" y="360"/>
      <point x="276" y="344"/>
    </contour>
    <contour>
      <point x="413" y="292" type="curve"/>
      <point x="413" y="249" type="line"/>
      <point x="345" y="221"/>
      <point x="274" y="178"/>
      <point x="274" y="141" type="curve"/>
      <point x="274" y="112"/>
      <point x="301" y="99"/>
      <point x="327" y="99" type="curve"/>
      <point x="353" y="99"/>
      <point x="388" y="123"/>
      <point x="427" y="168" type="curve"/>
      <point x="427" y="121" type="line"/>
      <point x="384" y="89"/>
      <point x="307" y="-8"/>
      <point x="259" y="-8" type="curve"/>
      <point x="187" y="-8"/>
      <point x="180" y="104"/>
      <point x="185" y="135" type="curve"/>
      <point x="218" y="188"/>
      <point x="331" y="249"/>
    </contour>
    <contour>
      <point x="131" y="11" type="curve"/>
      <point x="15" y="-5" type="line"/>
      <point x="18" y="27"/>
      <point x="23" y="106"/>
      <point x="23" y="179" type="curve"/>
      <point x="23" y="251"/>
      <point x="21" y="323"/>
      <point x="18" y="395" type="curve"/>
      <point x="114" y="440" type="line"/>
      <point x="123" y="429" type="line"/>
      <point x="123" y="203" type="line" smooth="yes"/>
      <point x="123" y="146"/>
      <point x="127" y="62"/>
    </contour>
    <contour>
      <point x="88" y="280" type="curve"/>
      <point x="81" y="329" type="line"/>
      <point x="133" y="355"/>
      <point x="176" y="404"/>
      <point x="208" y="440" type="curve"/>
      <point x="212" y="440" type="line"/>
      <point x="238" y="424"/>
      <point x="271" y="396"/>
      <point x="297" y="367" type="curve"/>
      <point x="214" y="274" type="line"/>
      <point x="191" y="299"/>
      <point x="157" y="324"/>
      <point x="133" y="324" type="curve"/>
      <point x="114" y="324"/>
      <point x="92" y="295"/>
    </contour>
  </outline>
</glyph>
<glyph name="t_acute" format="1">
  <advance width="406"/>
  <outline>
    <contour>
      <point x="112" y="574" type="curve"/>
      <point x="37" y="541" type="line"/>
      <point x="28" y="564"/>
      <point x="27" y="614"/>
      <point x="27" y="634" type="curve"/>
      <point x="27" y="657"/>
      <point x="121" y="700"/>
      <point x="155" y="710" type="curve"/>
      <point x="224" y="700"/>
      <point x="275" y="578"/>
      <point x="320" y="578" type="curve"/>
      <point x="338" y="578"/>
      <point x="337" y="608"/>
      <point x="301" y="641" type="curve"/>
      <point x="301" y="646" type="line"/>
      <point x="350" y="700" type="line"/>
      <point x="370" y="689"/>
      <point x="391" y="657"/>
      <point x="391" y="625" type="curve"/>
      <point x="381" y="577"/>
      <point x="300" y="516"/>
      <point x="272" y="508" type="curve"/>
      <point x="201" y="518"/>
      <point x="138" y="648"/>
      <point x="96" y="648" type="curve"/>
      <point x="81" y="648"/>
      <point x="92" y="606"/>
    </contour>
    <contour>
      <point x="146" y="350" type="line"/>
      <point x="159" y="430" type="line"/>
      <point x="357" y="430" type="line"/>
      <point x="357" y="350" type="line"/>
    </contour>
    <contour>
      <point x="158" y="479" type="curve"/>
      <point x="181" y="474" type="line"/>
      <point x="172" y="410"/>
      <point x="167" y="276"/>
      <point x="171" y="176" type="curve"/>
      <point x="173" y="120"/>
      <point x="191" y="105"/>
      <point x="224" y="105" type="curve"/>
      <point x="266" y="105"/>
      <point x="328" y="149"/>
      <point x="354" y="168" type="curve"/>
      <point x="371" y="145" type="line"/>
      <point x="312" y="86"/>
      <point x="231" y="26"/>
      <point x="174" y="-10" type="curve"/>
      <point x="124" y="-10"/>
      <point x="74" y="30"/>
      <point x="74" y="60" type="curve"/>
      <point x="74" y="131"/>
      <point x="78" y="277"/>
      <point x="78" y="360" type="curve"/>
      <point x="36" y="360" type="line"/>
      <point x="36" y="381" type="line"/>
      <point x="82" y="405"/>
      <point x="128" y="437"/>
    </contour>
  </outline>
</glyph>
<glyph name="t_u" format="1">
  <advance width="669"/>
  <outline>
    <contour>
      <point x="290" y="119" type="curve"/>
      <point x="299" y="86" type="line"/>
      <point x="119" y="-10" type="line"/>
      <point x="69" y="10"/>
      <point x="55" y="32"/>
      <point x="55" y="81" type="curve"/>
      <point x="55" y="103"/>
      <point x="57" y="221"/>
      <point x="57" y="290" type="curve"/>
      <point x="57" y="346"/>
      <point x="52" y="347"/>
      <point x="27" y="366" type="curve"/>
      <point x="27" y="391" type="line"/>
      <point x="74" y="430"/>
      <point x="107" y="466"/>
      <point x="135" y="493" type="curve"/>
      <point x="150" y="488" type="line"/>
      <point x="145" y="421"/>
      <point x="145" y="333"/>
      <point x="145" y="246" type="curve"/>
      <point x="145" y="130"/>
      <point x="167" y="72"/>
    </contour>
    <contour>
      <point x="296" y="352" type="line"/>
      <point x="131" y="352" type="line"/>
      <point x="133" y="430" type="line"/>
      <point x="351" y="430" type="line"/>
      <point x="351" y="411" type="line"/>
    </contour>
    <component base="u" xOffset="226"/>
  </outline>
</glyph>
<glyph name="u_i" format="1">
  <advance width="675"/>
  <outline>
    <contour>
      <point x="524" y="487" type="line"/>
      <point x="527" y="480" type="line"/>
      <point x="559" y="486" type="line"/>
      <point x="665" y="607" type="line"/>
      <point x="665" y="615" type="line"/>
      <point x="613" y="628" type="line"/>
    </contour>
    <contour>
      <point x="255" y="390" type="curve"/>
      <point x="255" y="417" type="line"/>
      <point x="391" y="432" type="line"/>
      <point x="396" y="423" type="line"/>
      <point x="382" y="365"/>
      <point x="388" y="235"/>
      <point x="388" y="164" type="curve"/>
      <point x="388" y="104"/>
      <point x="404" y="79"/>
      <point x="449" y="79" type="curve"/>
      <point x="474" y="79"/>
      <point x="534" y="110"/>
      <point x="564" y="137" type="curve"/>
      <point x="564" y="91" type="line"/>
      <point x="504" y="64"/>
      <point x="427" y="10"/>
      <point x="367" y="-12" type="curve"/>
      <point x="305" y="8"/>
      <point x="299" y="42"/>
      <point x="288" y="86" type="curve"/>
      <point x="288" y="130"/>
      <point x="288" y="315"/>
      <point x="288" y="336" type="curve"/>
      <point x="288" y="372"/>
      <point x="287" y="375"/>
    </contour>
    <contour>
      <point x="516" y="69" type="curve"/>
      <point x="516" y="106"/>
      <point x="516" y="223"/>
      <point x="516" y="314" type="curve"/>
      <point x="516" y="364"/>
      <point x="511" y="367"/>
      <point x="471" y="380" type="curve"/>
      <point x="471" y="407" type="line"/>
      <point x="618" y="432" type="line"/>
      <point x="623" y="423" type="line"/>
      <point x="614" y="339"/>
      <point x="616" y="190"/>
      <point x="616" y="139" type="curve"/>
      <point x="616" y="98"/>
      <point x="617" y="90"/>
      <point x="653" y="72" type="curve"/>
      <point x="653" y="47" type="line"/>
      <point x="554" y="-17" type="line"/>
      <point x="536" y="4"/>
      <point x="516" y="32"/>
    </contour>
    <contour>
      <point x="24" y="390" type="curve"/>
      <point x="24" y="417" type="line"/>
      <point x="169" y="432" type="line"/>
      <point x="174" y="423" type="line"/>
      <point x="160" y="365"/>
      <point x="157" y="317"/>
      <point x="157" y="246" type="curve"/>
      <point x="157" y="115"/>
      <point x="177" y="83"/>
      <point x="222" y="83" type="curve"/>
      <point x="247" y="83"/>
      <point x="303" y="110"/>
      <point x="333" y="137" type="curve"/>
      <point x="333" y="91" type="line"/>
      <point x="273" y="64"/>
      <point x="190" y="10"/>
      <point x="130" y="-12" type="curve"/>
      <point x="92" y="-2"/>
      <point x="60" y="32"/>
      <point x="57" y="76" type="curve"/>
      <point x="57" y="120"/>
      <point x="67" y="305"/>
      <point x="67" y="326" type="curve"/>
      <point x="67" y="362"/>
      <point x="56" y="375"/>
    </contour>
  </outline>
</glyph>
<glyph name="upsilon_dieresis" format="1">
  <advance width="606"/>
  <outline>
    <contour>
      <point x="393" y="505" type="curve"/>
      <point x="420" y="505"/>
      <point x="435" y="521"/>
      <point x="435" y="545" type="curve"/>
      <point x="435" y="568"/>
      <point x="420" y="584"/>
      <point x="393" y="584" type="curve"/>
      <point x="368" y="584"/>
      <point x="352" y="568"/>
      <point x="352" y="545" type="curve"/>
      <point x="352" y="521"/>
      <point x="368" y="505"/>
    </contour>
    <contour>
      <point x="245" y="505" type="curve"/>
      <point x="272" y="505"/>
      <point x="287" y="521"/>
      <point x="287" y="545" type="curve"/>
      <point x="287" y="568"/>
      <point x="272" y="584"/>
      <point x="245" y="584" type="curve"/>
      <point x="220" y="584"/>
      <point x="204" y="568"/>
      <point x="204" y="545" type="curve"/>
      <point x="204" y="521"/>
      <point x="220" y="505"/>
    </contour>
    <component base="upsilon" xOffset="-6"/>
  </outline>
</glyph>
